<svg viewBox="30.45 -80.674 500 500" xmlns="http://www.w3.org/2000/svg">
  <path d="M 280.397 352.971 C 379.319 352.902 441.07 245.773 391.549 160.137 C 386.185 150.859 379.679 142.288 372.185 134.624 L 372.185 77.606 C 372.185 6.947 295.694 -37.215 234.502 -1.886 C 206.103 14.511 188.609 44.813 188.609 77.606 L 188.609 134.624 C 119.448 205.352 152.787 324.425 248.62 348.957 C 259.003 351.615 269.678 352.963 280.397 352.971 Z M 298.754 237.74 L 298.754 279.54 C 298.754 293.671 283.456 302.504 271.218 295.438 C 265.539 292.159 262.039 286.099 262.039 279.54 L 262.039 237.74 C 237.562 223.608 237.562 188.278 262.039 174.146 C 286.516 160.015 317.113 177.68 317.113 205.943 C 317.113 219.06 310.114 231.181 298.754 237.74 Z M 225.324 77.606 C 225.324 35.211 271.218 8.713 307.933 29.911 C 324.973 39.749 335.47 57.93 335.47 77.606 L 335.47 108.502 C 300.658 91.784 260.136 91.784 225.324 108.502 L 225.324 77.606 Z" style=""></path>
</svg>