<svg viewBox="30.45 -80.674 500 500" xmlns="http://www.w3.org/2000/svg">
  <path fill="#0e76de" d="M 280.45 -80.674 C 32.379 -80.674 30.45 31.257 30.45 169.326 C 30.45 307.395 32.379 419.326 280.45 419.326 C 528.521 419.326 530.45 307.395 530.45 169.326 C 530.45 31.257 528.521 -80.674 280.45 -80.674 Z"></path>
  <path d="M 280.45 318.009 C 360.569 317.953 410.583 231.187 370.475 161.829 C 366.13 154.314 360.861 147.372 354.791 141.165 L 354.791 94.985 C 354.791 37.757 292.84 1.989 243.279 30.603 C 220.278 43.883 206.109 68.425 206.109 94.985 L 206.109 141.165 C 150.094 198.449 177.096 294.889 254.713 314.758 C 263.123 316.911 271.769 318.003 280.45 318.009 Z M 295.318 224.681 L 295.318 258.536 C 295.318 269.981 282.928 277.135 273.016 271.412 C 268.416 268.756 265.582 263.848 265.582 258.536 L 265.582 224.681 C 245.757 213.235 245.757 184.621 265.582 173.175 C 285.406 161.73 310.187 176.037 310.187 198.928 C 310.187 209.552 304.519 219.369 295.318 224.681 L 295.318 224.681 Z M 235.845 94.985 C 235.845 60.648 273.016 39.187 302.752 56.356 C 316.553 64.324 325.055 79.049 325.055 94.985 L 325.055 120.008 C 296.86 106.468 264.04 106.468 235.845 120.008 L 235.845 94.985 Z" style="fill: rgb(255, 255, 255);"></path>
</svg>